<svg xmlns="http://www.w3.org/2000/svg" viewBox="0 0 636.19 609.32"><defs><style>.cls-1,.cls-2,.cls-3,.cls-4{fill:none;stroke:#fff;stroke-miterlimit:10;}.cls-1{opacity:0.7;}.cls-2,.cls-3,.cls-4{stroke-width:7px;}.cls-2{opacity:0.2;}.cls-3{opacity:0.1;}.cls-4{opacity:0.05;}</style></defs><title>Dank Wave</title><g id="Layer_2" data-name="Layer 2"><g id="Layer_4" data-name="Layer 4"><g id="Wave"><path class="cls-1" d="M15.77.43a1849.92,1849.92,0,0,1,344,260,1849.93,1849.93,0,0,1,276,335"/><path class="cls-2" d="M12.77,3.43a1849.92,1849.92,0,0,1,344,260,1849.93,1849.93,0,0,1,276,335"/><path class="cls-3" d="M7.77,8.43a1849.92,1849.92,0,0,1,344,260,1849.93,1849.93,0,0,1,276,335"/><path class="cls-4" d="M1.77,12.43a1849.92,1849.92,0,0,1,344,260,1849.93,1849.93,0,0,1,276,335"/></g></g></g></svg>