<svg xmlns="http://www.w3.org/2000/svg" xmlns:xlink="http://www.w3.org/1999/xlink" viewBox="0 0 636.19 609.62"><defs><style>.cls-1,.cls-2,.cls-3,.cls-4{fill:none;stroke-miterlimit:10;}.cls-1{opacity:0.6;stroke:url(#linear-gradient);}.cls-2,.cls-3,.cls-4{stroke-width:7px;}.cls-2,.cls-3{opacity:0.5;}.cls-2{stroke:url(#linear-gradient-2);}.cls-3{stroke:url(#linear-gradient-3);}.cls-4{opacity:0.45;stroke:url(#linear-gradient-4);}</style><linearGradient id="linear-gradient" x1="62.46" y1="334.85" x2="589.2" y2="260.82" gradientUnits="userSpaceOnUse"><stop offset="0" stop-color="#fff" stop-opacity="0"/><stop offset="0.25" stop-color="#fff" stop-opacity="0.7"/><stop offset="0.8" stop-color="#fff" stop-opacity="0.7"/><stop offset="1" stop-color="#fff" stop-opacity="0"/></linearGradient><linearGradient id="linear-gradient-2" x1="57.53" y1="337.56" x2="588.82" y2="262.89" gradientUnits="userSpaceOnUse"><stop offset="0" stop-color="#fff" stop-opacity="0"/><stop offset="0.2" stop-color="#fff" stop-opacity="0.2"/><stop offset="0.8" stop-color="#fff" stop-opacity="0.2"/><stop offset="1" stop-color="#fff" stop-opacity="0"/></linearGradient><linearGradient id="linear-gradient-3" x1="52.53" y1="342.56" x2="583.82" y2="267.89" gradientUnits="userSpaceOnUse"><stop offset="0" stop-color="#fff" stop-opacity="0"/><stop offset="0.2" stop-color="#fff" stop-opacity="0.1"/><stop offset="0.8" stop-color="#fff" stop-opacity="0.1"/><stop offset="1" stop-color="#fff" stop-opacity="0"/></linearGradient><linearGradient id="linear-gradient-4" x1="46.53" y1="346.86" x2="577.82" y2="272.19" gradientUnits="userSpaceOnUse"><stop offset="0" stop-color="#fff" stop-opacity="0"/><stop offset="0.2" stop-color="#fff" stop-opacity="0.05"/><stop offset="0.8" stop-color="#fff" stop-opacity="0.05"/><stop offset="1" stop-color="#fff" stop-opacity="0"/></linearGradient></defs><title>Dank Wave</title><g id="Layer_2" data-name="Layer 2"><g id="Layer_4" data-name="Layer 4"><g id="Wave"><path class="cls-1" d="M15.77.43a1849.92,1849.92,0,0,1,344,260,1849.93,1849.93,0,0,1,276,335"/><path class="cls-2" d="M12.77,3.43a1849.92,1849.92,0,0,1,344,260,1849.93,1849.93,0,0,1,276,335"/><path class="cls-3" d="M7.77,8.43a1849.92,1849.92,0,0,1,344,260,1849.93,1849.93,0,0,1,276,335"/><path class="cls-4" d="M1.77,12.73a1849.92,1849.92,0,0,1,344,260,1849.93,1849.93,0,0,1,276,335"/></g></g></g></svg>