<svg xmlns="http://www.w3.org/2000/svg" viewBox="0 0 1192.1 1193.36"><defs><style>.cls-1{fill:none;stroke:#fff;stroke-miterlimit:10;stroke-width:2px;}</style></defs><title>Surf Map Round</title><g id="Layer_2" data-name="Layer 2"><g id="Layer_2-2" data-name="Layer 2"><g id="Map-Round"><path class="cls-1" d="M1191.28,1192.79a94.19,94.19,0,0,0-9.5-11.5c-5.68-5.85-7.67-6.33-9-10-2.16-6,.79-11.16-2-13-2-1.29-4.34.62-6-1-.95-.93-.55-1.93-1-6-.43-3.87-.67-5.83-2-7-.58-.51-2-1.43-5-1a124.37,124.37,0,0,0-20,7c-5.1,2.3-10.36,5.12-13,3a4.86,4.86,0,0,1-1.5-3.5v-9c-4.22.21-10.24.45-17.5.5-11.19.08-11.36-.36-18,0-5,.28-9.56.79-18,1-7.33.19-8.64-.08-10-1-3.66-2.47-2.1-5.91-7-14a55.92,55.92,0,0,0-6-8,62.62,62.62,0,0,0-5.5-5.5,66.89,66.89,0,0,0-11.5-8.5c-9-5.28-14.14-5.38-15-9-.67-2.8,1.91-4.8,9-14,3.49-4.53,6.21-8.38,8-11l29,16,11-19-23-11-8-11a44.31,44.31,0,0,1,3-6c2.69-4.5,4.44-5.6,4-7-.61-2-4.62-1.89-11-3a83.94,83.94,0,0,1-12-3c-4.14-4.78-7.93-5.77-10-6-2.45-.28-4.12.32-10,2-4.7,1.34-8.52,2.36-11,3-.48-.72-1.18-1.75-2-3-2.76-4.17-2.9-4.54-3-5-.44-2,.38-3.66,2-7a33.12,33.12,0,0,1,3-5q17.83.51,18-1,.12-1-8-3a16.89,16.89,0,0,1-2-5c-.87-3.93.25-5.87-1-7-1.46-1.32-4.37-.05-8,1a52.16,52.16,0,0,1-14,2c-6.6,1.62-8.47.91-9,0-1-1.73,2.88-4.17,6-12,1.23-3.08,2.59-7.64,3-9,1.48-5,1.29-5.23,2-6,1.12-1.22,3.34-2.4,16-1,7.66.85,9.87,1.61,12,0,2.31-1.75,2.39-4.66,3-8a44.56,44.56,0,0,1,8-18,20.8,20.8,0,0,0-5-15,20.11,20.11,0,0,0-10-6,87,87,0,0,0,2-9c.92-5.5.55-6.48,0-7-2.19-2.07-8.65,1.79-9,2l-1,6c-2.15.16-6.86.52-13,1-8.85.7-10.46.86-11,0-1-1.53,1.48-6.17,19-21a18.88,18.88,0,0,1,10-1c3.19.6,4.86,1.89,6,1,1.56-1.21-.64-4.28,0-10,.47-4.19,2-5.83,1-7s-3.67.13-8,0a20,20,0,0,1-8-2,134.91,134.91,0,0,1-12-11c-5.23-5.41-3.07-4.09-11-13-3.06-3.44-4.44-4.82-4-6,.86-2.31,8-1.82,14-1a318.52,318.52,0,0,0-1-37c-1.4-16.16-3.5-25.56,2-30,3.09-2.49,6.31-.23,16-2a58.11,58.11,0,0,0,13-4c2.51-3.92,4.6-7,6-9,3.1-4.46,4.4-6,4-8s-2.27-2.63-6-5c-3.44-2.19-7.3-5.79-15-13-4.63-4.33-5.31-5.34-5-6s2-.88,13,1c10.73,1.82,12,2.41,13,3,2,1.14,6.36,4.24,9,12l8,4c7.59,3.82,9.35,4.76,11,4,2.81-1.3,3-6.53,3-9-1-2.86-1.91-6.89,0-10,2.91-4.74,9.64-2.55,14-8,3-3.71,4.26-9.56,2-13-1.89-2.88-5.53-2.93-11-4a76.64,76.64,0,0,1-20-7c-7,1.11-9.39-1.27-10-2-1.28-1.51-.73-2.67-2-9-.89-4.44-1.54-5.25-1-7a7.93,7.93,0,0,1,5-5c2.4-.76,3.25.46,7,0,1.81-.22,4.37-.54,5-2s-.67-3-4-7-6.3-7.14-8-9c-4.27-4.67-8.05-9.07-7-11a1.75,1.75,0,0,0,.12-.21c.22-.47.22-1.31-.12-4.79-.4-4.08-.55-4.55-1-5-.87-.89-2.26-.94-5-1-3.83-.09-4.34.62-6,0a8.14,8.14,0,0,1-4-4c-.67-1.19-1.69-3-1-4,.89-1.3,3.66.25,5-1s.14-4.12-1-8c-3.1-10.57-1.25-12.53-4-15-3.77-3.38-9.12-1.38-10-4-.58-1.71,1.55-3,3-7a18.71,18.71,0,0,0,1-8c-.21-1-.53-2.36-1-4-.95-3.34-1.54-4.38-1-5,.68-.78,2.17.19,5,0a11.88,11.88,0,0,0,4-1c3.39-4.09,3.55-6,3-7-.72-1.3-2.65-1-9-2s-7.86-1.84-9-3c-.24-.24-2.72-2.82-2-5,.61-1.87,3-1.74,4-4,.52-1.18.23-2.06,0-4-.31-2.61.08-2.07,0-8-.11-8.31-.86-8.56,0-10,2-3.36,6.53-2.67,7-5,.36-1.79-2.12-3.16-5-6-4.4-4.34-3.05-5.52-9-14-3.68-5.25-5.55-7.91-9-11s-5.07-3.53-6-6c-1.8-4.78,2-8.81,0-11-1.81-2-5.34.85-8-1-4.41-3.06.13-14.43-3-16-.95-.48-2.67-.08-6,3a52.56,52.56,0,0,0-19-8,51.92,51.92,0,0,0-12-1c-2,2.33-3.8,2.89-5,3-3.35.29-5-2.91-8-2-1.24.38-2.16,1.25-4,3-2.91,2.76-2.89,3.91-4,4-2.27.18-2.88-4.59-7-6-.46-.16-.9-.25-5,0-5.62.35-8.43.52-10,1a19.17,19.17,0,0,0-8,5,79.33,79.33,0,0,1-21,1c-5.2-.47-7-1.19-12-1-5.65.22-10.12,1.42-16,3-5.17,1.39-9.61,2.69-15.85,2.31a14.4,14.4,0,0,1-2.15-.31c-5.12-1.09-6.12-3.14-13-5a8.43,8.43,0,0,1-4-2c-1.9-1.84-1.27-3.39-3-5-1.26-1.17-2.3-1-6-2a52.69,52.69,0,0,1-6-2l-8-55c.49-2.64,1.15-6,2-10,1.31-6.08,1.8-7.56,3-8,2.86-1.05,6.09,5.07,9,4,2.06-.76,2.56-4.6,3-8a23.67,23.67,0,0,0,0-7c-1.48-8.31-9-9.92-13-18-1.42-2.86-2.79-7.33-2-14a5.91,5.91,0,0,1-3-2c-2-2.65-.65-6.62,0-9a49.5,49.5,0,0,0,1-17c-.62-5.18-6.11-12.12-29-19a94.92,94.92,0,0,1-10-9c-4.46-4.63-6.7-7-7-10-.5-4.91,3.48-7.56,2-10-1.09-1.78-3.61-1-9-2a40,40,0,0,1-13-5c-2-1.15-.87-.73-10-8-5.83-4.64-8.47-6.55-9-10-.3-2,.44-2.2,0-4-.71-2.93-3.24-4.77-9-8-8.79-4.93-9.11-4.14-11-6-2.43-2.39-2.89-4.7-5-14-3.52-15.52-4.64-19.8-4-20,.88-.28,4.65,7.19,6,10,1.66,3.46,2.63,6,4,6s1.44-2.41,4-4c.26-.16,3.17-1.93,5-1,3.62,1.85.19,12.9,3,14,1.73.68,3.42-3.36,7-3,2.22.23,3,1.92,6,2,1.74,0,2.66-.48,3,0,.61.87-1.66,3.61-3,5-2.46,2.54-3.77,2.61-4,4-.32,1.91,1.73,4.28,4,5s3.68-.69,6-1c4.66-.62,7.77,4.05,18,13,5.89,5.15,8.85,7.71,10,7,2-1.24.61-10.88-5-17-2.33-2.54-4.47-3.48-6-7-.73-1.68-2.14-4.91-1-8,.48-1.3,1.13-1.82,1-3-.15-1.44-1.27-2.09-3-4a17.21,17.21,0,0,1-3-4c-1-2.11-.22-3.75,2-11,1.71-5.6,2.34-8.07,3-8,1,.11-.09,6.12,3,8,1.45.88,2.74.19,6,0,2.48-.14,4.65.24,9,1,15.48,2.71,32,13,32,13,12.2,7.6,24.86,15.47,24,24-.23,2.31-1.3,3.13-3,10a74.46,74.46,0,0,0-2,11c-.27,6.3,3.71,10.55,22,29,11.84,11.94,15,15,17,14,2.24-1.16,2.49-7.24,0-11-1.5-2.26-3.07-2.28-5-4-6.26-5.55-5.2-18.9-2-20,2.18-.75,3.87,4.7,9,5,3.69.21,4.29-2.51,9-3,5.28-.55,7.57,2.57,10,1s.47-5.16,3-8c3.52-4,10.43-.44,13-4,1.86-2.58-1.32-5,0-9,2.22-6.69,13.55-6.56,14-11,.19-1.83-1.63-3-5-6-.63-.57-10.17-9.28-16-19-4.08-6.81-4-10.21-8-12-3.2-1.43-5.87-.42-9,0-15,2-29.59-11-33-14-7.58-6.75-6.7-10-14-14-4.71-2.58-9-3.39-10-7-.27-1,.49-3.66,2-9,1.05-3.72,1.8-5.89,3-6,1-.09,1.46,1.2,2,1,.94-.34-.08-4.45-1-11-.76-5.42-.66-6.8-2-8-1.89-1.68-4.23-.85-7-1-8.87-.49-9.69-10.45-21-15-2.49-1-1.23,0-14-3-6.2-1.44-9.33-2.18-11-3-5-2.47-7.75-6-13-13-4.85-6.46-7.28-9.69-9-14-1.11-2.77-4.77-11.94-3-23,.88-5.48,2.62-8.48,1-10-2.28-2.13-7,2.63-14,1-4.64-1.07-4.85-3.67-9-4-4.93-.39-5.95,3.17-11,4-9.07,1.49-16.64-8.21-19-6-.24.22-.4.54,0,5,.59,6.6,1.24,9.18,0,10-.44.29-.61,0-3,0-3,0-3.51.43-4,0-.25-.22-1.09-1.17,2-9,1.65-4.19,2.52-5.5,2-6-1.17-1.14-6.34,4.82-13,4a22.85,22.85,0,0,1-4-1c-2.38-.76-6.06-1.94-6-3s3.54-1.26,12-3,8.65-2.26,11-2a10.24,10.24,0,0,1,1.22.21c1.93.45,7,1,11.28,2.29,4.82,1.47,4.1,2.54,7,3,4.44.7,6.21-1.79,11-3,9.67-2.43,18.27,3.75,19.5,1.5.64-1.18-1.68-3-1-4,1.25-1.87,10.38,2.27,12,3,4.93,2.23,10.18,4.69,14,10a31.81,31.81,0,0,0,2,3c2,2.25,4.09,3.15,12,6,5.71,2.06,6.17,2.15,7,2,3.43-.61,3.62-3.63,8-8,6.19-6.18,11.41-5.74,13-11a8.15,8.15,0,0,0,0-5c-1.09-3.08-4.14-4.61-7-6-5-2.41-6.07-1.14-8-3s-1.62-4.13-3-11c-.7-3.5-1.48-6.28-2-8"/><path class="cls-1" d="M662.28,1191.29l3-28,1.5-16-1-2c-1-.81-8.42-6.85-7-10,.32-.71,1.06-1.2,7-3,2.83-.86,5.23-1.53,7-2a37.75,37.75,0,0,1,0-4c.16-2.94.23-4.41,1-5,1.14-.88,3.17.1,7,2,4.35,2.15,7.8,3.89,10,5a25.75,25.75,0,0,0,13-9,26.1,26.1,0,0,0,5-18,18.86,18.86,0,0,1-2-5c-.43-1.79-.72-3.1,0-4,.54-.68,1.41-.8,3-1a15.83,15.83,0,0,1,4,0l3-14a9.29,9.29,0,0,1-3-5c-.67-3.56,1.56-6.07,3-10a24.78,24.78,0,0,0,1-12.5l3-20.5c3.36-49.46,5.24-85.82,5.5-95.5.16-5.81,0-10.18-2-15-1.67-4.11-3.33-5.38-4.5-9.5-1.64-5.79-.37-10.69,0-13,1-6.48,1.43-16.33-1.5-31l-2-22-3-21-9-42a78.28,78.28,0,0,0-5.5-23c-2.73-6.6-5.24-9.9-6-17-.52-4.86.29-6.79,0-13a64.69,64.69,0,0,0-2.5-15,256.74,256.74,0,0,0-.5-28,448.9,448.9,0,0,0-6-45c-.34-1.78-1.26-6.52-2-13-.73-6.31-.9-10.93-1-13-.81-17.51-3.4-19.38-4-36-.57-15.6,1.63-16.3,0-26a21.14,21.14,0,0,1,0-9c1.44-6,5.58-9.83,8-12,8-7.19,17.65-8.64,22-9l24,2a26.64,26.64,0,0,0,19.5-22,236.38,236.38,0,0,0,8.5-23c2.32-7.43,4.11-14.47,5.5-21l-8-56h-16.5c-2.94-.6-6.22-.65-9,1-3,1.78-3.09,3.68-6,7-4,4.55-8.65,6.15-17,9-6.54,2.23-8.14,1.69-9,1-1.8-1.45-.78-3.92-2.5-6.5s-4.8-3.21-9-4c-18.1-3.41-15.8-1.95-25.5-3.5-1-.17-7.36-1-11.27,1.43a5,5,0,0,0-.73.57c-1.45,1.34-.69,1.8-3.5,7.5a47.9,47.9,0,0,1-4.5,7.5c-2.43,3.28-3.65,4.9-5,5-2.4.18-3.11-3.52-9-11-4.1-5.21-5.89-6.13-6-9a45.8,45.8,0,0,0,0-7,28.89,28.89,0,0,0-.5-3l-12-13-10.5-5c-6.21-3-7.41-3.51-9-5-1.93-1.8-2.66-3.31-6-10-.88-1.77-2.77-5.55-5.5-11-3.57-2.86-6.8-5.18-9.5-7-5.09-3.43-6.34-3.78-8-6-2.21-3-2.94-6.24-4-11-1.2-5.43-.6-6.42-2-8-2-2.27-4.65-1.75-10-3a43,43,0,0,1-10.5-4c-1.23-1.72-3.07-4.18-5.5-7-3.25-3.76-4.87-5.65-7-7-1.72-1.09-6.16-3.4-14-2-.59,5.71-1.38,6.94-2,7-.87.08-1.3-2.19-4-6-1.81-2.55-3-4.12-5-5-2.21-1-3.18-.12-5-1-1.43-.69-3-2.26-4-6a255.67,255.67,0,0,0-29-35q-5.28-5.32-10.5-10a54,54,0,0,1-7.5-1c-7.12-1.46-8.73-3.3-13-3s-4.73,2.29-9,3q-6.08,1-13-3l-7-11a49.1,49.1,0,0,1-5,1c-2.88.42-4.33.62-5,0-1.12-1-.13-3,0-7a26.06,26.06,0,0,0-.5-6,202,202,0,0,0-19.5-22,204.86,204.86,0,0,0-52.5-37,229.53,229.53,0,0,0-25.5-5c-7.83-1.08-23.31-3.22-34-2-25,2.84-42.76,26.13-50.5,38a70.15,70.15,0,0,0-12.5-3c-3.87-.55-5.79-.48-8-2-2.93-2-2.68-4.31-5-8a23.39,23.39,0,0,0-14-10c-5.29-1.18-6,1.21-12,0-2.06-.41-8.89-1.79-12-7-1.12-1.87-.55-2.21-2-12-.8-5.42-1.22-8.17-2-10-2-4.76-3.93-4.7-5-9-.73-2.94-.07-3.88-1-8a34.1,34.1,0,0,0-2-6c-3.76-8.91-7.47-17.68-14-25-6-6.67-6.2-3.1-22-15-11.5-8.66-12.72-11.56-20-14-3.84-1.29-10.91-3-16-4-7.23-1.49-8.58-1.34-11-3-4.64-3.19-7.62-9.2-9-12-1.7-3.43-2.43-6-5-7-1.11-.42-2.42-.28-5,0-5.72.63-6.88,1.8-8,1-2.16-1.55,1.2-6.66-1-11-1.52-3-5-4.34-8-5-4.92,1.64-7,1-8,0-2.1-2-3.37-4.74-2.52-7.52"/></g></g></g></svg>