<svg xmlns="http://www.w3.org/2000/svg" xmlns:xlink="http://www.w3.org/1999/xlink" viewBox="0 0 1826 1208"><defs><style>.cls-1{fill:#283246;}.cls-2{fill:url(#linear-gradient);}.cls-3{fill:#031735;stroke:#cecece;}.cls-3,.cls-4{stroke-miterlimit:10;}.cls-4{fill:none;stroke:#031735;stroke-width:10px;}</style><linearGradient id="linear-gradient" x1="-148.38" y1="870.04" x2="924.56" y2="369.72" gradientUnits="userSpaceOnUse"><stop offset="0.3" stop-color="#283246" stop-opacity="0"/><stop offset="0.88" stop-color="#283246" stop-opacity="0.96"/><stop offset="1" stop-color="#283246"/></linearGradient></defs><title>Surf Map_1</title><g id="Layer_2" data-name="Layer 2"><g id="Map"><path class="cls-1" d="M748.25,2l1077-2q.5,604,1,1208l-795-2-34-716.9-41-22.28-14-88.09-83-109.36-54-83,9-81-46-72.91Z" transform="translate(-0.25)"/><path class="cls-2" d="M941.25,405.5q4,28,8,56c-1.39,6.53-3.18,13.57-5.5,21a237.46,237.46,0,0,1-8.5,23,26.64,26.64,0,0,1-19.5,22l-24-2c-4.35.36-14,1.81-22,9-2.42,2.17-6.56,6-8,12a21.06,21.06,0,0,0,0,9c1.63,9.7-.57,10.4,0,26,.6,16.62,3.19,18.49,4,36,.1,2.07.27,6.69,1,13,.75,6.48,1.66,11.22,2,13a447.52,447.52,0,0,1,6,45,254.59,254.59,0,0,1,.5,28,64.82,64.82,0,0,1,2.5,15c.29,6.21-.52,8.14,0,13,.76,7.1,3.27,10.4,6,17a78.4,78.4,0,0,1,5.5,23l9,42,3,21q1,11,2,22c2.93,14.67,2.54,24.52,1.5,31-.37,2.31-1.64,7.21,0,13,1.17,4.12,2.83,5.39,4.5,9.5,2,4.82,2.16,9.19,2,15-.26,9.68-2.14,46-5.5,95.5l-3,20.5a24.73,24.73,0,0,1-1,12.5c-1.44,3.93-3.67,6.44-3,10a9.3,9.3,0,0,0,3,5l-3,14a15.88,15.88,0,0,0-4,0c-1.59.2-2.46.32-3,1-.72.9-.43,2.21,0,4a19,19,0,0,0,2,5,26.15,26.15,0,0,1-5,18,25.72,25.72,0,0,1-13,9c-2.2-1.11-5.65-2.85-10-5-3.83-1.9-5.86-2.88-7-2-.77.59-.84,2.06-1,5a37.39,37.39,0,0,0,0,4c-1.77.47-4.17,1.14-7,2-5.94,1.8-6.68,2.29-7,3-1.42,3.15,6,9.19,7,10l1,2-1.5,16-3,28-842,4Q2.75,605.25.25,11l185-1c-1.71,4.64,0,9.51,3.5,11.5s7.57.2,8,0c3,.66,6.48,2,8,5,2.2,4.34-1.16,9.45,1,11,1.12.8,2.28-.37,8-1,2.58-.28,3.89-.42,5,0,2.57,1,3.3,3.57,5,7,1.38,2.8,4.36,8.81,9,12,2.42,1.66,3.77,1.51,11,3,5.09,1,12.16,2.71,16,4,7.28,2.44,8.5,5.34,20,14,15.8,11.9,16.05,8.33,22,15,6.53,7.32,10.24,16.09,14,25a34.81,34.81,0,0,1,2,6c.23,1,.35,1.94.46,2.7.4,2.77.46,4.49.54,5.3.38,3.77,2.91,4.65,5,9,.73,1.52,1.16,4.37,2,10,1.45,9.79.88,10.13,2,12,3.11,5.21,9.94,6.59,12,7,6,1.21,6.71-1.18,12,0a23.43,23.43,0,0,1,14,10c2.32,3.69,2.07,6,5,8,2.21,1.52,4.13,1.45,8,2a70.25,70.25,0,0,1,12.5,3c7.75-11.87,25.51-35.16,50.5-38,10.69-1.22,26.17.92,34,2a229.36,229.36,0,0,1,25.5,5,204.85,204.85,0,0,1,52.5,37,202.3,202.3,0,0,1,19.5,22,26.06,26.06,0,0,1,.5,6c-.13,4-1.12,6,0,7,.67.62,2.12.42,5,0a49.44,49.44,0,0,0,5-1l7,11q6.91,4,13,3c4.27-.71,4.71-2.7,9-3s5.88,1.54,13,3a53,53,0,0,0,7.5,1q5.21,4.68,10.5,10a256.27,256.27,0,0,1,29,35c1,3.74,2.57,5.31,4,6,1.82.88,2.79.05,5,1,2,.88,3.19,2.45,5,5,2.7,3.81,3.13,6.08,4,6,.62-.06,1.41-1.29,2-7,7.84-1.4,12.28.91,14,2,2.13,1.35,3.75,3.24,7,7,2.43,2.82,4.27,5.28,5.5,7a42.89,42.89,0,0,0,10.5,4c5.35,1.25,8,.73,10,3,1.4,1.58.8,2.57,2,8,1.06,4.76,1.79,8.05,4,11,1.66,2.22,2.91,2.57,8,6,2.7,1.82,5.93,4.14,9.5,7,2.73,5.45,4.62,9.23,5.5,11,3.34,6.69,4.07,8.2,6,10,1.59,1.49,2.79,2.05,9,5l10.5,5,12,13a28.75,28.75,0,0,1,.5,3,46,46,0,0,1,0,7c.11,2.87,1.9,3.79,6,9,5.89,7.48,6.6,11.18,9,11,1.35-.1,2.57-1.72,5-5a48.11,48.11,0,0,0,4.5-7.5c2.81-5.7,2-6.16,3.5-7.5a5.1,5.1,0,0,1,.73-.57c3.91-2.46,10.24-1.6,11.27-1.43,9.7,1.55,7.4.09,25.5,3.5,4.2.79,7.28,1.43,9,4s.7,5.05,2.5,6.5c.86.69,2.46,1.23,9-1,8.35-2.85,13-4.45,17-9,2.91-3.32,3-5.22,6-7,2.78-1.65,6.06-1.6,9-1h16.5Z" transform="translate(-0.25)"/><g id="Map-Round"><path class="cls-3" d="M921.25,6a39.31,39.31,0,0,1,2.5,6.5c1.8,6.3.73,8.81,3,11,1.93,1.86,3,.59,8,3,2.86,1.39,5.91,2.92,7,6a8.15,8.15,0,0,1,0,5c-1.59,5.26-6.81,4.82-13,11-4.38,4.37-4.57,7.39-8,8-.83.15-1.29.06-7-2-7.91-2.85-10-3.75-12-6a31.81,31.81,0,0,1-2-3c-3.82-5.31-9.07-7.77-14-10-1.62-.73-10.75-4.87-12-3-.68,1,1.64,2.82,1,4-1.23,2.25-9.83-3.93-19.5-1.5-4.79,1.21-6.56,3.7-11,3-2.9-.46-2.18-1.53-7-3-4.27-1.3-9.34-1.84-11.28-2.29a10.23,10.23,0,0,0-1.22-.21c-2.35-.26-2.52.26-11,2s-11.94,2-12,3,3.62,2.24,6,3a22.85,22.85,0,0,0,4,1c6.66.82,11.83-5.14,13-4,.52.5-.35,1.81-2,6-3.09,7.83-2.25,8.78-2,9,.49.43,1,0,4,0,2.39,0,2.56.29,3,0,1.24-.82.59-3.4,0-10-.4-4.46-.24-4.78,0-5,2.36-2.21,9.93,7.49,19,6,5.05-.83,6.07-4.39,11-4,4.15.33,4.36,2.93,9,4,7,1.63,11.72-3.13,14-1,1.62,1.52-.12,4.52-1,10-1.77,11.06,1.89,20.23,3,23,1.72,4.31,4.15,7.54,9,14,5.25,7,8,10.53,13,13,1.67.82,4.8,1.56,11,3,12.77,3,11.51,2,14,3,11.31,4.55,12.13,14.51,21,15,2.77.15,5.11-.68,7,1,1.34,1.2,1.24,2.58,2,8,.92,6.55,1.94,10.66,1,11-.54.2-1-1.09-2-1-1.2.11-1.95,2.28-3,6-1.51,5.34-2.27,8-2,9,1,3.61,5.29,4.42,10,7,7.3,4,6.42,7.25,14,14,3.41,3,18,16,33,14,3.13-.42,5.8-1.43,9,0,4,1.79,3.92,5.19,8,12,5.83,9.72,15.37,18.43,16,19,3.37,3,5.19,4.17,5,6-.45,4.44-11.78,4.31-14,11-1.32,4,1.86,6.42,0,9-2.57,3.56-9.48,0-13,4-2.53,2.84-.51,6.38-3,8s-4.72-1.55-10-1c-4.71.49-5.31,3.21-9,3-5.13-.3-6.82-5.75-9-5-3.2,1.1-4.26,14.45,2,20,1.93,1.72,3.5,1.74,5,4,2.49,3.76,2.24,9.84,0,11-2,1-5.16-2.06-17-14-18.29-18.45-22.27-22.7-22-29a74.46,74.46,0,0,1,2-11c1.7-6.87,2.77-7.69,3-10,.86-8.53-11.8-16.4-24-24,0,0-16.52-10.29-32-13-4.35-.76-6.52-1.14-9-1-3.26.19-4.55.88-6,0-3.09-1.88-2-7.89-3-8-.66-.07-1.29,2.4-3,8-2.22,7.25-3,8.89-2,11a17.21,17.21,0,0,0,3,4c1.73,1.91,2.85,2.56,3,4,.13,1.18-.52,1.7-1,3-1.14,3.09.27,6.32,1,8,1.53,3.52,3.67,4.46,6,7,5.61,6.12,7,15.76,5,17-1.15.71-4.11-1.85-10-7-10.23-8.95-13.34-13.62-18-13-2.32.31-3.64,1.75-6,1s-4.32-3.09-4-5c.23-1.39,1.54-1.46,4-4,1.34-1.39,3.61-4.13,3-5-.34-.48-1.26,0-3,0-3-.08-3.78-1.77-6-2-3.58-.36-5.27,3.68-7,3-2.81-1.1.62-12.15-3-14-1.83-.93-4.74.84-5,1-2.56,1.59-2.69,4-4,4s-2.34-2.54-4-6c-1.35-2.81-5.12-10.28-6-10-.64.2.48,4.48,4,20,2.11,9.3,2.57,11.61,5,14,1.89,1.86,2.21,1.07,11,6,5.76,3.23,8.29,5.07,9,8,.44,1.8-.3,2,0,4,.53,3.45,3.17,5.36,9,10,9.13,7.27,8,6.85,10,8a40,40,0,0,0,13,5c5.39,1,7.91.22,9,2,1.48,2.44-2.5,5.09-2,10,.3,3,2.54,5.37,7,10a94.92,94.92,0,0,0,10,9c22.89,6.88,28.38,13.82,29,19a49.5,49.5,0,0,1-1,17c-.65,2.38-2,6.35,0,9a5.91,5.91,0,0,0,3,2c-.79,6.67.58,11.14,2,14,4,8.08,11.52,9.69,13,18a23.67,23.67,0,0,1,0,7c-.44,3.4-.94,7.24-3,8-2.91,1.07-6.14-5.05-9-4-1.2.44-1.69,1.92-3,8-.85,4-1.51,7.36-2,10l8,55a52.69,52.69,0,0,0,6,2c3.7,1,4.74.83,6,2,1.73,1.61,1.1,3.16,3,5a8.43,8.43,0,0,0,4,2c6.88,1.86,7.88,3.91,13,5a14.4,14.4,0,0,0,2.15.31c6.24.38,10.69-.92,15.85-2.31,5.88-1.58,10.35-2.78,16-3,5-.19,6.8.53,12,1a79.33,79.33,0,0,0,21-1,19.17,19.17,0,0,1,8-5c1.57-.48,4.38-.65,10-1,4.1-.25,4.54-.16,5,0,4.12,1.41,4.73,6.18,7,6,1.11-.09,1.09-1.24,4-4,1.84-1.75,2.76-2.62,4-3,3-.91,4.65,2.29,8,2,1.2-.11,3-.67,5-3a51.86,51.86,0,0,1,24,5,52.54,52.54,0,0,1,7,4c3.33-3.08,5.05-3.48,6-3,3.13,1.57-1.41,12.94,3,16,2.66,1.85,6.19-1,8,1,2,2.19-1.8,6.22,0,11,.93,2.47,2.51,2.87,6,6s5.32,5.75,9,11c5.95,8.48,4.6,9.66,9,14,2.88,2.84,5.36,4.21,5,6-.47,2.33-5,1.64-7,5-.86,1.44-.11,1.69,0,10,.08,5.93-.31,5.39,0,8,.23,1.94.52,2.82,0,4-1,2.26-3.39,2.13-4,4-.72,2.18,1.76,4.76,2,5,1.14,1.16,2.7,2,9,3s8.28.7,9,2c.55,1,.39,2.91-3,7a11.88,11.88,0,0,1-4,1c-2.83.19-4.32-.78-5,0-.54.62.05,1.66,1,5,.47,1.64.79,3,1,4a18.71,18.71,0,0,1-1,8c-1.45,4-3.58,5.29-3,7,.88,2.62,6.23.62,10,4,2.75,2.47.9,4.43,4,15,1.14,3.88,2.31,6.77,1,8s-4.11-.3-5,1c-.69,1,.33,2.81,1,4a8.14,8.14,0,0,0,4,4c1.66.62,2.17-.09,6,0,2.74.06,4.13.11,5,1,.45.45.6.92,1,5,.34,3.48.34,4.33.12,4.79a1.75,1.75,0,0,1-.12.21c-1.05,1.93,2.73,6.33,7,11,1.7,1.86,4.63,5,8,9s4.58,5.67,4,7-3.19,1.78-5,2c-3.75.46-4.6-.76-7,0a7.93,7.93,0,0,0-5,5c-.54,1.75.11,2.56,1,7,1.27,6.33.72,7.49,2,9,.61.73,3,3.11,10,2a76.64,76.64,0,0,0,20,7c5.47,1.07,9.11,1.12,11,4,2.26,3.44,1,9.29-2,13-4.36,5.45-11.09,3.26-14,8-1.91,3.11-1,7.14,0,10,0,2.47-.19,7.7-3,9-1.65.76-3.41-.18-11-4l-8-4c-2.64-7.76-7-10.86-9-12-1-.59-2.27-1.18-13-3-11-1.88-12.65-1.76-13-1s.37,1.67,5,6c7.7,7.21,11.56,10.81,15,13,3.73,2.37,5.59,3,6,5s-.9,3.54-4,8c-1.4,2-3.49,5.08-6,9a58.11,58.11,0,0,1-13,4c-9.69,1.77-12.91-.49-16,2-5.5,4.44-3.4,13.84-2,30a318.52,318.52,0,0,1,1,37c-6-.82-13.14-1.31-14,1-.44,1.18.94,2.56,4,6,7.93,8.91,5.77,7.59,11,13a134.91,134.91,0,0,0,12,11,20,20,0,0,0,8,2c4.33.13,6.85-1.32,8,0s-.53,2.81-1,7c-.64,5.72,1.56,8.79,0,10-1.14.89-2.81-.4-6-1a18.88,18.88,0,0,0-10,1c-17.52,14.83-20,19.47-19,21,.54.86,2.15.7,11,0,6.14-.48,10.85-.84,13-1l1-6c.35-.21,6.81-4.07,9-2,.55.52.92,1.5,0,7a87,87,0,0,1-2,9,20.11,20.11,0,0,1,10,6,20.8,20.8,0,0,1,5,15,44.56,44.56,0,0,0-8,18c-.61,3.34-.69,6.25-3,8-2.13,1.61-4.34.85-12,0-12.66-1.4-14.88-.22-16,1-.71.77-.52,1-2,6-.41,1.36-1.77,5.92-3,9-3.12,7.83-7,10.27-6,12,.53.91,2.4,1.62,9,0a52.16,52.16,0,0,0,14-2c3.63-1.05,6.54-2.32,8-1,1.25,1.13.13,3.07,1,7a16.89,16.89,0,0,0,2,5q8.12,2,8,3-.17,1.51-18,1a33.12,33.12,0,0,0-3,5c-1.62,3.34-2.44,5-2,7,.1.46.24.83,3,5,.82,1.25,1.52,2.28,2,3,2.48-.64,6.3-1.66,11-3,5.88-1.68,7.55-2.28,10-2,2.07.23,5.86,1.22,10,6a83.94,83.94,0,0,0,12,3c6.38,1.11,10.39,1,11,3,.44,1.4-1.31,2.5-4,7a44.31,44.31,0,0,0-3,6l8,11,23,11-11,19-29-16c-1.79,2.62-4.51,6.47-8,11-7.09,9.2-9.67,11.2-9,14,.86,3.62,6,3.72,15,9a66.89,66.89,0,0,1,11.5,8.5,62.62,62.62,0,0,1,5.5,5.5,55.92,55.92,0,0,1,6,8c4.9,8.09,3.34,11.53,7,14,1.36.92,2.67,1.19,10,1,8.44-.21,13-.72,18-1,6.64-.36,6.81.08,18,0,7.26-.05,13.28-.29,17.5-.5v9a4.86,4.86,0,0,0,1.5,3.5c2.64,2.12,7.9-.7,13-3a124.37,124.37,0,0,1,20-7c3-.43,4.42.49,5,1,1.33,1.17,1.57,3.13,2,7,.45,4.07.05,5.07,1,6,1.66,1.62,4-.29,6,1,2.79,1.84-.16,7,2,13,1.33,3.67,3.32,4.15,9,10a94.19,94.19,0,0,1,9.5,11.5l-520-2-9,.5,3-28,1.5-16-1-2c-1-.81-8.42-6.85-7-10,.32-.71,1.06-1.2,7-3,2.83-.86,5.23-1.53,7-2a37.75,37.75,0,0,1,0-4c.16-2.94.23-4.41,1-5,1.14-.88,3.17.1,7,2,4.35,2.15,7.8,3.89,10,5a25.75,25.75,0,0,0,13-9,26.1,26.1,0,0,0,5-18,18.86,18.86,0,0,1-2-5c-.43-1.79-.72-3.1,0-4,.54-.68,1.41-.8,3-1a15.83,15.83,0,0,1,4,0l3-14a9.29,9.29,0,0,1-3-5c-.67-3.56,1.56-6.07,3-10a24.78,24.78,0,0,0,1-12.5l3-20.5c3.36-49.46,5.24-85.82,5.5-95.5.16-5.81,0-10.18-2-15-1.67-4.11-3.33-5.38-4.5-9.5-1.64-5.79-.37-10.69,0-13,1-6.48,1.43-16.33-1.5-31l-2-22-3-21-9-42a78.29,78.29,0,0,0-5.5-23c-2.73-6.6-5.24-9.9-6-17-.52-4.86.29-6.79,0-13a64.69,64.69,0,0,0-2.5-15,256.74,256.74,0,0,0-.5-28,448.9,448.9,0,0,0-6-45c-.34-1.78-1.25-6.52-2-13-.73-6.31-.9-10.93-1-13-.81-17.51-3.4-19.38-4-36-.57-15.6,1.63-16.3,0-26a21.14,21.14,0,0,1,0-9c1.44-6,5.58-9.83,8-12,8-7.19,17.65-8.64,22-9l24,2a26.64,26.64,0,0,0,19.5-22,236.41,236.41,0,0,0,8.5-23c2.32-7.43,4.11-14.47,5.5-21l-8-56h-16.5c-2.94-.6-6.22-.65-9,1-3,1.78-3.09,3.68-6,7-4,4.55-8.65,6.15-17,9-6.54,2.23-8.14,1.69-9,1-1.8-1.45-.78-3.92-2.5-6.5s-4.8-3.21-9-4c-18.1-3.41-15.8-1.95-25.5-3.5-1-.17-7.36-1-11.27,1.43a5,5,0,0,0-.73.57c-1.45,1.34-.69,1.8-3.5,7.5a47.9,47.9,0,0,1-4.5,7.5c-2.43,3.28-3.65,4.9-5,5-2.4.18-3.11-3.52-9-11-4.1-5.21-5.89-6.13-6-9a45.85,45.85,0,0,0,0-7,29,29,0,0,0-.5-3l-12-13-10.5-5c-6.21-3-7.41-3.51-9-5-1.93-1.8-2.66-3.31-6-10-.88-1.77-2.77-5.55-5.5-11-3.57-2.86-6.8-5.18-9.5-7-5.09-3.43-6.34-3.78-8-6-2.21-3-2.94-6.24-4-11-1.2-5.43-.6-6.42-2-8-2-2.27-4.65-1.75-10-3a43,43,0,0,1-10.5-4c-1.23-1.72-3.07-4.18-5.5-7-3.25-3.76-4.87-5.65-7-7-1.72-1.09-6.16-3.4-14-2-.59,5.71-1.38,6.94-2,7-.87.08-1.3-2.19-4-6-1.81-2.55-3-4.12-5-5-2.21-1-3.18-.12-5-1-1.43-.69-3-2.26-4-6a255.7,255.7,0,0,0-29-35q-5.28-5.32-10.5-10a54,54,0,0,1-7.5-1c-7.12-1.46-8.73-3.3-13-3s-4.73,2.29-9,3q-6.08,1-13-3l-7-11a49.11,49.11,0,0,1-5,1c-2.88.42-4.33.62-5,0-1.12-1-.13-3,0-7a26.06,26.06,0,0,0-.5-6,202,202,0,0,0-19.5-22,204.87,204.87,0,0,0-52.5-37,229.52,229.52,0,0,0-25.5-5c-7.83-1.08-23.31-3.22-34-2-25,2.84-42.75,26.13-50.5,38a70.15,70.15,0,0,0-12.5-3c-3.87-.55-5.79-.48-8-2-2.93-2-2.68-4.31-5-8a23.39,23.39,0,0,0-14-10c-5.29-1.18-6,1.21-12,0-2.06-.41-8.89-1.79-12-7-1.12-1.87-.55-2.21-2-12-.8-5.42-1.22-8.17-2-10-2-4.76-3.93-4.7-5-9-.73-2.94-.07-3.88-1-8a34.11,34.11,0,0,0-2-6c-3.76-8.91-7.47-17.68-14-25-6-6.67-6.2-3.1-22-15-11.5-8.66-12.72-11.56-20-14-3.84-1.29-10.91-3-16-4-7.23-1.49-8.58-1.34-11-3-4.64-3.19-7.62-9.2-9-12-1.7-3.43-2.43-6-5-7-1.11-.42-2.42-.28-5,0-5.72.63-6.88,1.8-8,1-2.16-1.55,1.2-6.66-1-11-1.52-3-5-4.34-8-5-.25.13-4.46,2.18-8,0-3.35-2.06-4.72-7.07-2.5-11.5Z" transform="translate(-0.25)"/></g><line class="cls-4" x1="186" y1="10" x2="921" y2="6"/><line class="cls-4" x1="844" y1="1197.01" x2="1377" y2="1200.01"/></g></g></svg>