<svg xmlns="http://www.w3.org/2000/svg" viewBox="0 0 1193.85 1205.91"><defs><style>.cls-1{fill:none;stroke:#fff;stroke-miterlimit:10;}</style></defs><title>Surf Map</title><g id="Layer_2" data-name="Layer 2"><g id="Layer_2-2" data-name="Layer 2"><path class="cls-1" d="M1193.5,1205.56l-21-21v-14h-7v-12l-6-2-35,11v-14h-64l-7-13-11-14-27.5-15.5,18-27,29,16,10-16-22-14-8-11,7-14-23-5-11-7-20,6-6-6,6-14,17,2-7-6-4-12-15,4v-16l-7,5v12l-9-1,13-27h28l8-27-8-14,15-5-18-3v-14h-9l-1,6-22,1,17-21h15l1-19H994l-24-24-3-9h14l-3-61,9-6,29,4-5-8,10-18-18-9-7-14,23,4,11,12,19,10,3-10h12l-14-12,15-4,3-16-31-11h-9l-5-18,8,3-3-9h15l-14-18-15-4H986l6-4h30l-1-13h-11l-6-8h5l-4-23-9-4,4-16-3-10h9l2-10H992l-4-6,5-6-1-21,7-4-14-18-11-16-4-13h-6l-4-18-6,5-20-11H923l-13-7,8,10-8-2-8,8-7-7-16,2-7,5H844l8-3-16,2-31,6-15-6-4-9-13-3-8-55,3-17,10,5,4-17-14-17-3-13-2-30v-11l-27-8-17-17,3-12-24-5-19-17v-6l-19-14-11-36,11,17,9-6,4,17,6-4,9,5-4,6,2,5,11-1,22,20,3-4-7-14-7-7,1-9-7-9,4-21,5,9,41,11,29,25-5,25,39,42,3-10-12-11,2-14,9,6,11-6,7,4,4-10,13-4v-10l15-9-17-14-11-25-21,1-20-10-15-16-12-5,4-18h5l-4-17-8-2-19-15-26-6-22-25v-4"/><polyline class="cls-1" points="662.5 1194.06 665.5 1166.06 665 1149.56 665 1144.56 657 1135.56 670 1132.56 673 1121.56 690 1129.56 702 1119.56 708 1103.56 703 1094.56 713 1091.56 716 1078.56 711 1072.56 718 1052.56 719 1032.56 724 924.55 719 910.55 718.5 868.05 716.5 846.05 713.5 825.05 704.5 783.05 691.5 740.05 690.5 715.05 681.5 628.05 674.5 580.05 675.5 541.05 693.5 524.05 707.5 522.05 722.5 524.05 728.5 525.05 742.5 518.05 750.5 504.06 757.5 480.06 764.5 460.06 756.5 404.06 749.5 402.06 740.5 402.06 728.5 402.06 718.5 417.06 696.5 419.06 694.5 413.06 672.5 406.06 647.5 407.06 644.5 419.06 635.5 429.06 618.5 408.06 621.5 400.06 609.5 387.06 588.5 376.06 578.5 356.06 559.5 343.06 554.5 322.06 534.5 317.06 521.5 301.06 506.5 299.06 504.5 306.06 496.5 295.06 489.5 295.06 487.5 290.06 458.5 255.06 448.5 245.06 426.5 238.06 417.5 243.06 405.5 241.06 398.5 229.06 386.5 229.06 388.5 218.06 369.5 195.06 333.5 167.06 316.5 159.06 290.5 151.06 257.5 151.06 251.5 151.06 221.5 168.06 215.5 173.06 206.5 190.06 183.5 183.06 177.5 172.06 165.5 165.06 152.5 165.06 141.5 159.06 137.5 137.06 132.5 129.06 130.5 114.06 116.5 89.06 95.5 74.06 74.5 59.05 45.5 52.05 32.5 32.05 18.5 34.05 19.5 24.05 12.5 17.05 2.5 18.05 0.5 0.06"/></g></g></svg>